<svg xmlns="http://www.w3.org/2000/svg" width="32" height="32" viewBox="0 0 16 16" fill="#212529">
  <path d="M2.854 15.854A.5.5 0 0 1 2 15.5V14H.5a.5.5 0 0 1-.354-.854l1.5-1.5A.5.5 0 0 1 2 11.5h1.793l3.39-3.39A.5.5 0 0 0 6.646 7.646L2.146 12.146A.5.5 0 0 1 1.854 12H.5a.5.5 0 0 0 0 1h1.293l3.746 3.746a.5.5 0 0 0 .708-.708L3.207 13H5a.5.5 0 0 1 0 1H3.5a.5.5 0 0 1-.646-.146zM15.854 4.146a.5.5 0 0 1 0 .708l-1.5 1.5a.5.5 0 0 1-.708-.708L14.293 5H12.5a.5.5 0 0 1 0-1h1.793l-3.39-3.39a.5.5 0 0 0-.708.708L13.854 3.854A.5.5 0 0 1 14.146 4H15.5a.5.5 0 0 0 0-1h-1.293l-3.746-3.746a.5.5 0 0 0-.708.708L12.793 3H11a.5.5 0 0 1 0-1h1.5a.5.5 0 0 1 .354.146z"/>
  <path d="M8 4.466c0-.175.1-.349.296-.479l6.5-4.5A.75.75 0 0 1 16 1.75v12.5a.75.75 0 0 1-1.204.604L8 5.934 1.204 14.854A.75.75 0 0 1 0 14.25V1.75A.75.75 0 0 1 1.204 1.146l6.5 4.5A.5.5 0 0 1 8 4.466z"/>
</svg> 